<svg width="20" height="20" viewBox="0 0 20 20" fill="none" xmlns="http://www.w3.org/2000/svg">
<g clip-path="url(#clip0)">
<mask id="path-1-inside-1" fill="white">
<path d="M19.7998 18.7904L12.6841 11.6749C15.1834 8.61815 14.7315 4.11418 11.6749 1.61489C8.61821 -0.88439 4.11419 -0.432496 1.6149 2.62416C-0.884392 5.68082 -0.432496 10.1848 2.62417 12.6841C5.25704 14.8369 9.042 14.8369 11.6749 12.6841L18.7905 19.7998C19.0741 20.0736 19.5259 20.0657 19.7998 19.7822C20.0669 19.5056 20.0669 19.0671 19.7998 18.7904ZM7.16094 12.8711C4.00875 12.8676 1.45426 10.3131 1.45074 7.16093C1.45074 4.00728 4.00729 1.45074 7.16094 1.45074C10.3146 1.45074 12.8711 4.00728 12.8711 7.16093C12.8711 10.3146 10.3146 12.8711 7.16094 12.8711Z"/>
</mask>
<path d="M19.7998 18.7904L22.6772 16.0118C22.661 15.9951 22.6447 15.9785 22.6282 15.962L19.7998 18.7904ZM12.6841 11.6749L9.58749 9.1429C8.28701 10.7334 8.40295 13.0505 9.85572 14.5033L12.6841 11.6749ZM2.62417 12.6841L0.0921971 15.7808L0.0922183 15.7808L2.62417 12.6841ZM11.6749 12.6841L14.5033 9.85569C13.0505 8.40293 10.7334 8.28699 9.14292 9.58747L11.6749 12.6841ZM18.7905 19.7998L15.9621 22.6282C15.9785 22.6446 15.9951 22.6609 16.0118 22.677L18.7905 19.7998ZM19.7998 19.7822L22.677 22.561L22.6772 22.5608L19.7998 19.7822ZM7.16094 12.8711L7.15643 16.8711H7.16094V12.8711ZM1.45074 7.16093L-2.54926 7.16093L-2.54925 7.16538L1.45074 7.16093ZM22.6282 15.962L15.5126 8.84642L9.85572 14.5033L16.9714 21.6189L22.6282 15.962ZM15.7808 14.2068C19.6784 9.43986 18.9737 2.41589 14.2068 -1.48174L9.1429 4.71153C10.4894 5.81247 10.6884 7.79645 9.58749 9.1429L15.7808 14.2068ZM14.2068 -1.48174C9.43992 -5.37942 2.41589 -4.67465 -1.48173 0.0921885L4.71153 5.15613C5.81248 3.80966 7.7965 3.61064 9.1429 4.71153L14.2068 -1.48174ZM-1.48173 0.0921885C-5.37943 4.85911 -4.67465 11.8831 0.0921971 15.7808L5.15613 9.58749C3.80965 8.48654 3.61064 6.50253 4.71153 5.15613L-1.48173 0.0921885ZM0.0922183 15.7808C4.19819 19.138 10.1008 19.138 14.2068 15.7808L9.14292 9.58747C7.98315 10.5357 6.31588 10.5357 5.15611 9.58747L0.0922183 15.7808ZM8.84645 15.5125L15.9621 22.6282L21.6189 16.9713L14.5033 9.85569L8.84645 15.5125ZM16.0118 22.677C17.8843 24.4855 20.8685 24.4336 22.677 22.561L16.9226 17.0034C18.1834 15.6979 20.2638 15.6617 21.5693 16.9225L16.0118 22.677ZM22.6772 22.5608C24.4411 20.7342 24.4411 17.8385 22.6772 16.0118L16.9224 21.5691C15.6927 20.2957 15.6927 18.277 16.9224 17.0036L22.6772 22.5608ZM7.16545 8.87111C6.21882 8.87004 5.4518 8.10294 5.45074 7.15647L-2.54925 7.16538C-2.54328 12.5233 1.79868 16.8651 7.15643 16.8711L7.16545 8.87111ZM5.45074 7.16093C5.45074 6.21643 6.21642 5.45074 7.16094 5.45074V-2.54926C1.79815 -2.54926 -2.54926 1.79814 -2.54926 7.16093H5.45074ZM7.16094 5.45074C8.10545 5.45074 8.87113 6.21643 8.87113 7.16093H16.8711C16.8711 1.79814 12.5237 -2.54926 7.16094 -2.54926V5.45074ZM8.87113 7.16093C8.87113 8.10542 8.10545 8.87111 7.16094 8.87111V16.8711C12.5237 16.8711 16.8711 12.5237 16.8711 7.16093H8.87113Z" fill="#9C69E2" mask="url(#path-1-inside-1)"/>
</g>
<defs>
<clipPath id="clip0">
<rect width="20" height="20" fill="white"/>
</clipPath>
</defs>
</svg>
